<?xml version="1.0" standalone="no"?>
<!DOCTYPE svg PUBLIC "-//W3C//DTD SVG 20010904//EN"
 "http://www.w3.org/TR/2001/REC-SVG-20010904/DTD/svg10.dtd">
<svg version="1.0" xmlns="http://www.w3.org/2000/svg"
 width="512.000000pt" height="512.000000pt" viewBox="0 0 512.000000 512.000000"
 preserveAspectRatio="xMidYMid meet">
<metadata>
Created by potrace 1.14, written by Peter Selinger 2001-2017
</metadata>
<g transform="translate(0.000000,512.000000) scale(0.100000,-0.100000)"
fill="#000000" stroke="none">
<path d="M176 3955 c4 -8 9 -15 13 -15 9 0 91 -106 91 -118 0 -6 -6 -13 -12
-15 -10 -4 -10 -7 0 -14 7 -5 14 -20 17 -32 2 -13 11 -34 20 -47 17 -27 19
-38 5 -29 -19 11 -10 -20 15 -58 l26 -37 -22 0 c-21 0 -21 -1 -5 -19 10 -11
15 -24 12 -29 -3 -5 3 -17 14 -27 26 -23 25 -35 0 -28 -24 6 -25 0 -4 -31 9
-16 11 -26 5 -30 -6 -4 -3 -19 9 -39 21 -34 26 -52 11 -43 -4 3 -17 -1 -27 -9
-10 -8 -14 -15 -7 -15 10 0 43 -53 43 -68 0 -2 -9 -2 -20 1 -20 5 -28 -7 -11
-18 6 -3 16 -19 25 -35 14 -29 14 -30 -10 -30 -28 0 -29 -2 -8 -42 9 -16 11
-27 5 -24 -17 11 -13 -3 10 -35 14 -20 16 -29 7 -29 -7 0 -19 -4 -27 -9 -12
-8 -13 -12 -1 -25 7 -9 10 -19 7 -23 -4 -3 7 -18 24 -34 l30 -28 -25 -7 c-25
-6 -37 -24 -16 -24 6 0 10 -6 10 -14 0 -8 12 -23 27 -34 l26 -19 -28 -7 -29
-7 43 -40 c24 -21 38 -39 32 -39 -18 0 -13 -15 14 -43 17 -17 22 -26 13 -29
-7 -3 5 -16 26 -31 l39 -26 -28 -7 -28 -7 34 -28 c19 -16 41 -29 49 -29 12 -1
11 -3 -2 -8 -15 -6 -14 -10 8 -29 14 -12 26 -22 27 -22 1 0 13 -4 27 -9 23 -9
23 -11 6 -17 -15 -7 -11 -11 24 -27 24 -11 38 -23 32 -27 -6 -3 9 -15 34 -25
42 -17 58 -36 32 -36 -7 0 0 -9 15 -19 19 -12 24 -20 15 -23 -8 -3 0 -11 20
-22 27 -14 31 -20 21 -32 -9 -11 -9 -14 2 -14 8 0 36 -11 62 -24 41 -21 45
-26 30 -35 -14 -8 -14 -10 -3 -11 8 0 38 -10 67 -22 41 -17 52 -26 48 -39 -5
-14 -1 -16 14 -12 12 3 29 2 38 -2 10 -5 21 -7 26 -7 4 1 7 -2 7 -8 0 -5 -6
-10 -12 -11 -7 0 8 -7 34 -15 35 -11 52 -23 63 -44 9 -16 15 -32 15 -35 0 -3
6 -18 13 -33 8 -15 29 -73 46 -129 18 -57 37 -106 42 -109 6 -3 2 -12 -8 -20
-15 -12 -15 -13 -1 -8 22 8 42 -28 25 -46 -10 -10 -9 -12 5 -7 12 4 24 -4 39
-26 16 -25 17 -28 2 -12 -25 27 -45 30 -60 9 -15 -21 -17 -38 -3 -29 5 3 15
-5 21 -19 7 -14 16 -23 20 -20 5 3 9 0 9 -5 0 -21 -19 -11 -34 17 -8 15 -18
26 -23 25 -11 -3 -11 39 1 55 11 16 -9 16 -21 -1 -5 -6 -8 -22 -7 -34 1 -15
-3 -20 -14 -15 -11 4 -12 7 -4 10 7 2 12 8 12 13 0 6 -5 7 -10 4 -6 -4 -17 -1
-25 5 -17 14 -20 -1 -4 -17 8 -8 8 -13 0 -17 -6 -4 -11 -12 -11 -19 0 -8 3 -8
12 1 7 7 15 12 20 12 4 0 -4 -11 -17 -25 -14 -13 -25 -29 -25 -35 0 -6 -7 -4
-16 5 -9 9 -23 14 -30 11 -7 -3 -16 -1 -19 4 -4 6 3 10 14 10 12 0 21 5 21 11
0 5 -4 7 -10 4 -5 -3 -10 -1 -10 4 0 6 -5 11 -11 11 -5 0 -8 -4 -4 -9 3 -5 0
-13 -6 -17 -8 -5 -9 -3 -4 6 6 9 4 11 -6 6 -8 -4 -3 2 10 13 24 21 23 42 -1
25 -22 -16 -53 -10 -50 9 2 11 -2 15 -13 11 -14 -6 -13 -15 8 -42 8 -10 12
-10 18 0 4 7 11 9 16 5 9 -9 -17 -28 -29 -21 -4 3 -8 0 -8 -7 0 -6 -9 -1 -20
12 -11 14 -19 18 -20 11 0 -7 -5 -10 -11 -6 -8 4 -7 9 2 16 11 7 10 8 -4 4
-10 -3 -16 -2 -12 3 3 5 0 11 -7 13 -9 3 -9 6 0 12 7 4 12 2 12 -3 0 -6 5 -11
11 -11 8 0 7 5 -2 16 -10 13 -10 17 2 26 11 8 10 9 -6 4 -19 -6 -19 -5 -2 8
13 10 15 15 5 19 -7 3 -3 4 10 4 12 -1 22 -6 22 -11 0 -5 7 -1 15 10 13 16 14
16 9 1 -5 -13 -2 -16 12 -14 11 1 24 6 31 10 6 4 13 4 16 0 2 -5 2 -2 0 5 -1
8 2 10 10 6 9 -5 9 -4 0 7 -7 7 -13 17 -13 23 0 5 7 1 16 -10 8 -10 12 -12 8
-4 -4 8 4 5 18 -8 13 -12 28 -19 31 -15 4 3 7 0 7 -8 0 -8 6 -4 16 9 14 20 42
22 29 2 -5 -8 24 -24 31 -17 2 2 -6 14 -17 26 -16 16 -17 22 -6 19 9 -2 15 1
14 7 -3 15 -25 14 -31 -1 -5 -12 -11 -11 -35 7 -17 12 -28 26 -25 31 3 4 0 8
-5 8 -14 0 -14 -17 -1 -25 6 -3 10 -11 10 -18 0 -6 -12 0 -27 15 l-26 27 -30
-21 -29 -21 6 24 c3 13 3 18 0 12 -8 -19 -31 -16 -43 4 -6 10 -11 13 -11 6 0
-6 5 -15 10 -18 6 -4 8 -11 5 -16 -4 -5 -13 -3 -21 6 -9 8 -12 20 -8 26 5 8 3
9 -5 5 -7 -5 -10 -14 -7 -22 6 -17 5 -17 -28 -4 -21 8 -24 7 -20 -8 4 -11 -2
-9 -17 8 -15 17 -20 19 -16 8 4 -10 3 -18 -2 -18 -16 0 -20 13 -9 34 9 18 9
19 -3 6 -8 -8 -21 -21 -29 -28 -13 -12 -13 -13 4 -10 10 2 21 -2 23 -9 7 -18
-37 -7 -54 14 -13 17 -13 16 -4 -3 10 -21 6 -34 -11 -34 -5 0 -7 4 -4 8 6 10
-2 22 -28 42 -18 14 -19 14 -5 -7 8 -13 16 -23 20 -23 3 0 6 -7 6 -15 0 -23
-16 -18 -28 9 -8 16 -17 22 -27 19 -11 -5 -13 -3 -7 7 5 9 4 11 -4 6 -13 -9
-5 -26 12 -26 7 0 18 -9 25 -20 15 -24 9 -25 -25 -3 -25 16 -74 30 -61 17 3
-3 12 -7 20 -8 23 -4 58 -26 58 -38 0 -7 -5 -6 -15 2 -10 9 -15 9 -15 1 0 -6
5 -11 11 -11 5 0 7 -6 3 -12 -5 -9 -2 -9 9 1 14 11 20 11 32 1 8 -7 12 -16 9
-21 -3 -5 0 -9 5 -9 14 0 14 13 0 27 -8 8 -1 10 25 10 27 -1 35 -5 31 -15 -3
-7 -5 -17 -5 -20 0 -4 -4 0 -10 8 -5 8 -12 11 -16 8 -3 -4 7 -18 22 -32 16
-13 31 -22 33 -20 3 2 -4 10 -14 18 -18 13 -17 13 6 13 27 1 35 -21 16 -44 -6
-9 -6 -13 2 -13 6 0 11 5 11 11 0 8 5 8 15 -1 8 -7 13 -16 10 -20 -3 -5 -1
-12 5 -15 6 -4 10 -3 9 2 -3 20 2 34 11 28 6 -4 8 -11 5 -16 -4 -5 -1 -9 5 -9
7 0 9 7 6 16 -4 10 -2 14 6 11 7 -2 12 -10 10 -16 -1 -6 2 -11 8 -11 5 0 10 5
10 10 0 6 5 10 11 10 5 0 7 -4 4 -10 -6 -10 -1 -12 48 -13 18 -1 26 -5 23 -14
-3 -8 1 -10 11 -6 12 5 14 3 8 -8 -8 -12 -6 -12 8 0 10 8 21 11 24 7 4 -4 1
-11 -7 -16 -11 -7 -5 -8 17 -6 18 3 37 7 42 10 5 4 17 -4 26 -16 14 -21 14
-24 -2 -35 -9 -7 -13 -13 -7 -13 5 0 17 7 27 15 11 7 25 11 33 8 17 -6 19 13
3 23 -8 5 -8 9 1 14 9 5 9 9 1 14 -6 4 -11 3 -11 -2 0 -5 -7 -9 -15 -9 -8 0
-12 4 -9 8 2 4 -5 6 -16 4 -14 -3 -18 0 -13 8 4 7 0 6 -10 -2 -9 -7 -17 -11
-17 -8 0 3 13 15 30 27 32 23 60 19 39 -6 -14 -17 2 -19 20 -1 11 10 13 10 7
0 -4 -7 -2 -13 4 -13 7 0 9 -8 4 -22 -6 -22 -6 -22 12 -6 14 12 23 14 34 7 13
-9 12 -10 -2 -5 -10 3 -20 1 -23 -4 -6 -10 8 -14 34 -10 9 1 12 -4 7 -15 -4
-11 -2 -15 6 -13 16 6 17 30 3 41 -6 6 -5 7 3 5 8 -2 14 -8 14 -13 0 -6 7 -21
15 -35 16 -28 73 -66 73 -49 0 6 5 7 10 4 12 -7 14 -26 3 -24 -21 3 -26 -2
-13 -12 13 -9 13 -10 0 -6 -8 2 -15 10 -15 17 0 7 -6 15 -14 18 -8 3 -11 0 -7
-6 9 -16 -14 -26 -27 -13 -9 9 -8 11 4 6 10 -4 16 0 16 9 0 8 -9 14 -19 13
-10 -1 -18 -9 -18 -18 0 -18 24 -42 33 -33 3 3 15 3 27 -1 20 -6 20 -8 4 -20
-10 -7 -24 -11 -31 -8 -9 4 -11 0 -7 -11 3 -9 10 -14 15 -11 11 7 32 -33 24
-45 -7 -12 -25 -4 -25 11 0 6 4 7 10 4 6 -3 7 1 3 10 -5 13 -7 14 -14 3 -7
-10 -9 -11 -9 0 0 7 -4 10 -10 7 -6 -4 -7 1 -4 12 5 15 4 16 -5 3 -14 -20 -14
-30 2 -30 7 0 18 -9 25 -21 11 -16 16 -18 28 -9 11 10 14 10 14 0 0 -6 5 -10
11 -8 6 2 9 8 7 13 -2 6 -6 9 -10 7 -5 -1 -8 2 -8 7 0 12 52 11 67 -1 7 -5 17
-7 23 -3 5 3 10 1 10 -4 0 -6 -7 -11 -15 -11 -22 0 -30 4 -27 13 1 4 -5 7 -14
7 -8 0 -12 -5 -9 -10 4 -6 1 -19 -6 -28 -11 -14 -11 -15 1 -4 18 15 34 16 24
0 -5 -7 -3 -8 7 -2 20 12 39 14 39 3 0 -5 5 -9 11 -9 6 0 8 10 5 23 -3 12 -3
17 0 10 3 -7 11 -11 17 -9 7 1 9 1 5 -1 -5 -3 -8 -9 -8 -14 0 -11 23 -7 32 6
5 6 8 4 8 -5 1 -9 6 -5 14 10 l14 25 -1 -26 c-2 -22 -6 -26 -29 -24 -16 2 -28
-1 -28 -5 0 -4 17 -7 37 -8 20 -1 40 -7 45 -14 4 -7 8 -8 8 -2 0 5 -6 16 -12
23 -11 10 -10 11 5 6 9 -4 17 -13 17 -21 0 -8 3 -14 8 -15 4 0 17 -2 30 -3 13
-2 26 2 29 7 4 6 1 7 -7 2 -9 -5 -11 -4 -6 4 11 17 26 3 19 -17 -6 -15 -5 -15
10 -3 11 8 17 9 17 3 0 -6 6 -9 13 -6 8 3 20 -2 27 -11 10 -12 16 -13 26 -4
11 9 14 8 14 -1 0 -7 8 -10 20 -7 27 7 25 -1 -2 -14 -22 -9 -21 -9 5 -6 23 4
25 2 15 -11 -10 -13 -11 -14 0 -8 7 4 15 1 18 -9 4 -10 13 -13 25 -10 13 4 19
1 19 -9 0 -9 5 -16 11 -16 5 0 7 5 3 12 -5 7 -3 8 5 3 10 -5 10 -10 1 -19 -8
-8 -15 -6 -26 8 -12 17 -14 17 -14 3 0 -10 11 -19 27 -23 31 -8 63 -34 42 -34
-7 0 -9 -3 -5 -7 4 -5 14 1 22 11 17 24 18 13 3 -17 l-12 -22 23 20 23 20 -12
-22 c-17 -32 -13 -38 7 -13 14 18 19 19 19 7 0 -9 -3 -14 -7 -12 -4 2 -7 -2
-7 -9 0 -8 9 -11 25 -8 17 3 23 1 18 -7 -4 -6 -2 -11 4 -11 6 0 8 -5 4 -12 -5
-8 -1 -8 12 2 10 8 16 10 12 6 -4 -5 19 -22 52 -37 119 -57 194 -62 403 -28
45 7 65 15 61 22 -5 8 -2 8 6 0 10 -9 17 -10 27 -2 7 7 13 8 13 4 0 -4 12 0
26 10 15 9 24 12 20 7 -3 -6 -2 -14 4 -17 6 -4 9 -1 8 6 -2 7 5 15 16 17 13 3
16 0 11 -9 -5 -8 -4 -10 4 -5 9 6 9 11 -1 24 -7 9 -8 13 -2 9 7 -4 17 0 24 8
9 11 17 12 33 4 17 -10 19 -9 13 6 -6 16 -4 16 11 4 14 -12 16 -12 8 0 -6 11
-3 13 14 8 17 -4 20 -3 12 7 -18 21 0 26 27 8 15 -9 23 -12 19 -5 -4 6 -3 14
2 17 5 4 13 1 17 -5 5 -8 9 -8 14 2 10 16 1 41 -12 33 -6 -4 -5 -10 3 -16 11
-8 10 -9 -3 -4 -10 3 -20 1 -23 -5 -4 -5 -11 -7 -16 -3 -5 3 -7 10 -3 15 3 5
9 7 14 4 4 -3 13 2 20 10 9 11 16 12 30 2 23 -14 41 0 20 14 -13 9 -12 10 2 5
10 -3 20 -1 23 4 4 6 15 6 28 -2 19 -10 21 -9 9 4 -10 13 -10 18 -1 24 7 4 9
3 6 -3 -4 -6 0 -13 8 -17 8 -3 17 -1 20 5 4 5 11 6 17 3 7 -4 8 -2 4 4 -4 7
-1 12 8 12 8 0 27 12 42 28 15 15 22 19 14 9 -11 -15 -11 -17 4 -11 9 3 16 10
16 15 0 5 5 9 11 9 5 0 7 -4 4 -10 -3 -6 1 -7 9 -4 9 3 13 10 10 15 -3 5 0 9
5 9 6 0 11 -4 11 -8 0 -5 10 -8 23 -7 13 2 21 8 19 16 -2 11 1 11 10 -1 7 -8
19 -16 27 -18 12 -3 12 -1 0 14 -13 16 -12 16 9 5 14 -7 22 -8 22 -1 0 5 5 10
11 10 5 0 7 -4 4 -10 -3 -5 -1 -10 4 -10 14 0 14 13 0 27 -8 8 -7 13 2 18 8 6
10 4 4 -5 -6 -10 -4 -12 8 -7 10 4 20 0 26 -11 10 -16 10 -16 11 2 0 14 5 17
21 13 17 -5 18 -3 8 9 -6 8 -9 17 -5 21 3 3 6 1 6 -5 0 -7 5 -12 11 -12 5 0 7
4 4 10 -4 6 3 6 21 0 35 -14 56 3 49 39 -5 23 -4 24 4 5 5 -12 15 -25 22 -30
7 -4 10 -3 6 3 -10 16 38 34 52 20 9 -9 11 -8 6 5 -8 20 10 25 18 6 4 -10 6
-10 6 -1 1 7 -9 17 -20 24 -17 9 -20 8 -14 -2 5 -8 4 -10 -3 -5 -7 4 -12 2
-12 -5 0 -7 -2 -10 -5 -7 -3 3 -3 12 1 21 7 20 38 17 66 -7 13 -11 19 -13 16
-4 -2 7 -19 21 -37 30 -31 15 -32 17 -9 20 14 2 22 9 20 18 -11 45 -10 49 5
43 10 -4 14 -2 10 4 -3 5 1 10 10 10 13 0 13 -3 -4 -16 -11 -9 -18 -22 -15
-29 4 -13 23 -17 20 -4 -1 4 8 23 21 42 13 19 21 27 18 18 -4 -10 -2 -20 4
-23 5 -4 7 -11 4 -16 -6 -8 2 -11 21 -8 4 0 10 -5 15 -12 4 -8 10 -11 14 -8 3
3 -6 17 -20 31 l-25 25 26 -3 c20 -2 24 1 19 14 -5 13 -4 14 6 5 9 -9 9 -16 1
-25 -7 -9 -6 -18 4 -32 8 -11 14 -15 14 -10 0 6 -6 16 -12 23 -11 11 -10 13 5
8 10 -4 16 -3 12 2 -7 12 5 41 17 41 5 0 7 -4 4 -9 -4 -5 -3 -11 1 -14 5 -2 1
-2 -7 0 -11 3 -12 1 -3 -8 16 -16 33 -3 28 21 -3 18 0 22 22 19 4 0 10 8 14
18 5 12 7 8 6 -14 0 -30 -1 -31 -14 -15 -14 16 -14 16 -9 -1 3 -10 2 -16 -2
-13 -4 2 -8 -4 -8 -15 0 -16 3 -17 11 -7 5 7 26 13 45 13 29 0 35 -3 32 -20
-2 -16 -1 -17 7 -5 7 10 6 19 -2 28 -9 11 -7 17 6 27 12 8 14 15 8 20 -6 3
-13 0 -16 -7 -6 -16 -45 -22 -45 -7 0 5 3 8 8 8 18 -3 32 2 32 12 0 6 -8 8
-19 4 -11 -3 -21 0 -24 9 -4 10 0 14 14 11 10 -2 24 -7 29 -10 6 -4 16 -2 23
3 8 6 20 2 37 -16 14 -13 19 -21 11 -17 -9 5 -12 4 -8 -2 4 -6 -3 -10 -15 -9
-12 0 -23 -6 -25 -14 -4 -13 -3 -13 6 0 10 13 11 13 11 0 0 -13 1 -13 10 0 5
8 10 11 10 6 0 -5 7 -3 15 4 8 7 12 17 9 22 -10 15 -10 77 -1 71 5 -3 7 -16 4
-30 -3 -15 1 -27 9 -30 10 -4 11 -10 3 -26 -9 -18 -7 -18 10 3 18 21 20 22 15
5 -5 -16 -4 -17 5 -5 15 20 14 27 -5 34 -10 4 -13 2 -8 -7 5 -9 4 -9 -6 0 -11
10 -11 15 0 28 8 10 9 15 1 15 -6 0 -11 5 -11 11 0 8 5 8 15 -1 17 -14 21 0 5
16 -7 7 -7 11 3 11 15 0 20 -34 6 -42 -5 -4 -9 -11 -9 -17 0 -6 9 -3 20 7 12
10 18 25 15 32 -3 8 0 11 6 7 6 -3 24 3 39 15 22 15 31 18 36 8 4 -6 4 -9 0
-5 -5 4 -13 3 -20 -2 -6 -6 -26 -21 -43 -36 -18 -14 -33 -31 -33 -37 0 -6 11
0 25 13 14 13 25 20 25 15 0 -5 7 0 16 11 12 15 15 16 10 2 -2 -9 2 -22 10
-29 13 -10 14 -7 9 22 -4 25 -3 30 5 19 5 -8 10 -12 11 -7 5 26 4 34 -5 47
-10 13 -9 13 8 0 23 -18 19 -19 47 5 23 20 23 20 9 0 -8 -11 -23 -27 -33 -35
-18 -15 -15 -56 4 -45 4 3 6 12 3 19 -3 8 -1 17 5 21 6 3 12 1 12 -4 1 -6 3
-15 4 -21 1 -5 3 -13 4 -17 1 -5 5 -1 10 6 6 9 6 22 1 31 -10 19 3 45 19 36 6
-4 11 -15 10 -24 0 -14 -2 -14 -8 2 -4 11 -10 15 -14 9 -3 -5 0 -18 7 -28 13
-18 14 -18 24 1 15 28 15 36 2 44 -9 5 -9 9 -1 14 9 6 16 -8 9 -17 -7 -6 28
-34 36 -29 5 3 6 0 2 -7 -5 -7 -10 -10 -13 -7 -3 3 -15 0 -27 -6 -11 -7 -24
-12 -27 -11 -3 1 -6 -4 -6 -12 0 -8 4 -12 9 -9 5 3 17 0 26 -8 15 -12 16 -11
3 5 -18 23 -7 34 14 13 9 -9 24 -16 33 -15 14 0 15 2 2 7 -21 10 -23 29 -4 36
11 4 15 2 11 -8 -4 -9 -1 -13 6 -10 13 5 18 64 5 64 -4 0 -8 4 -8 10 0 5 7 7
16 3 8 -3 13 -12 10 -19 -3 -7 -1 -16 4 -19 5 -3 7 -12 3 -20 -4 -12 1 -14 18
-11 13 3 27 5 31 5 9 1 6 41 -4 41 -4 0 -10 -4 -13 -10 -3 -5 -1 -10 6 -10 15
0 3 -13 -14 -16 -7 -1 -13 10 -13 25 -1 14 1 20 3 13 7 -19 23 -4 17 16 -5 14
-4 15 5 2 5 -8 13 -11 18 -7 4 5 -7 21 -25 37 -19 16 -28 31 -22 35 5 3 10 2
10 -3 0 -5 10 -9 23 -8 12 1 21 7 19 15 -2 9 4 10 19 6 16 -6 20 -4 13 6 -6
12 -5 12 9 0 21 -16 23 -4 3 18 -13 14 -11 16 19 16 18 0 37 -4 42 -9 5 -5 0
-6 -12 -2 -15 5 -17 4 -8 -5 20 -20 36 0 19 26 -10 16 -11 22 -3 22 7 0 23 1
36 1 21 2 22 4 10 19 -12 15 -12 16 5 10 10 -4 25 -2 32 4 8 6 25 9 38 7 17
-3 23 -1 19 8 -3 8 4 11 22 10 19 -3 25 0 21 11 -4 10 -1 11 12 5 9 -4 32 -7
49 -6 18 1 35 -2 39 -7 3 -5 14 -9 25 -9 11 0 19 -7 19 -17 0 -15 2 -15 9 -4
8 12 13 11 29 -9 14 -18 21 -20 27 -10 5 8 4 11 -3 6 -6 -3 -13 -2 -17 4 -3 6
3 10 16 10 19 0 17 3 -12 23 -49 33 -101 86 -95 96 3 5 -10 24 -29 42 -19 19
-35 42 -35 51 0 10 -11 25 -26 34 -17 11 -22 20 -15 27 7 7 -2 19 -26 38 -20
16 -31 29 -24 29 6 0 11 5 11 10 0 6 -7 10 -15 10 -8 0 -15 6 -15 14 0 7 -7
19 -15 26 -9 7 -14 18 -12 24 2 6 -8 21 -22 33 -15 14 -20 23 -12 23 7 0 2 10
-13 21 -21 16 -24 24 -15 30 10 6 4 16 -21 40 -18 18 -29 34 -22 37 14 4 -23
42 -43 42 -8 0 -15 5 -15 10 0 6 5 10 12 10 20 0 -26 29 -47 30 -16 0 -17 2
-6 9 12 8 9 12 -15 23 -16 7 -34 19 -40 27 -6 8 -16 11 -21 8 -6 -4 -13 0 -17
8 -3 8 -15 15 -27 15 -18 0 -19 2 -9 15 10 13 9 15 -9 15 -11 0 -24 0 -27 -1
-4 0 -10 4 -13 9 -4 6 -18 13 -31 15 -14 2 -38 9 -53 15 -16 7 -42 12 -58 12
-16 0 -29 5 -29 10 0 6 -7 10 -15 10 -8 0 -15 4 -15 9 0 6 -9 8 -21 6 -14 -3
-19 0 -16 8 4 10 -7 12 -40 10 -26 -2 -42 0 -39 6 4 5 -13 8 -39 6 -25 -2 -45
-1 -45 3 0 4 -21 7 -48 7 l-47 1 -1 54 c-1 67 -11 92 -68 176 -42 60 -51 84
-58 153 -2 17 -10 25 -28 28 -14 2 -63 30 -110 62 -99 68 -146 86 -250 96 -58
5 -79 11 -95 29 -30 32 -144 111 -200 139 -43 21 -131 47 -215 62 -47 9 -152
46 -243 86 -154 68 -190 81 -242 84 -63 3 -99 -12 -150 -63 -22 -21 -73 -60
-113 -86 l-74 -47 -46 43 c-26 23 -53 50 -60 60 -7 10 -22 18 -32 18 -10 0
-25 6 -32 13 -33 30 -98 77 -107 77 -5 0 -16 9 -23 19 -8 11 -27 25 -43 32
-17 8 -44 24 -62 37 -17 13 -37 22 -45 21 -7 -1 -40 10 -73 25 -33 16 -70 29
-81 30 -12 1 -34 10 -48 19 -14 9 -30 17 -36 17 -5 0 -10 5 -10 11 0 8 -4 8
-13 1 -10 -9 -19 -7 -37 5 -12 9 -40 17 -60 19 -21 1 -48 8 -60 14 -12 6 -24
9 -27 6 -3 -2 -16 -1 -28 4 -16 6 -25 5 -27 -2 -3 -7 -16 -4 -38 7 -23 12 -35
14 -38 7 -2 -8 -13 -8 -37 2 -36 15 -47 12 -38 -10 6 -16 -1 -18 -25 -5 -9 4
-29 11 -44 15 -24 5 -28 3 -28 -15 0 -16 -4 -19 -17 -13 -10 4 -28 7 -40 7
-13 -1 -23 3 -23 8 0 5 -4 9 -9 9 -6 0 -8 -9 -6 -21 3 -16 0 -19 -11 -15 -39
15 -64 18 -64 7 0 -8 -5 -9 -19 -2 -10 6 -39 9 -62 7 -24 -2 -52 1 -62 6 -16
8 -18 7 -12 -12 7 -21 6 -21 -19 -5 -14 9 -38 19 -53 21 -15 3 -36 6 -46 8
-10 1 -26 10 -37 18 -10 9 -21 14 -24 11 -3 -3 -12 2 -21 11 -9 9 -20 14 -25
11 -4 -3 -13 2 -20 10 -17 21 -71 20 -64 0z m1039 -2275 c5 8 10 8 21 -1 16
-13 10 -28 -9 -25 -7 1 -26 12 -41 24 -29 22 -51 21 -42 -4 5 -13 -8 -27 -31
-30 -6 -1 -9 4 -6 12 5 15 -9 19 -21 7 -4 -5 -20 -8 -34 -8 -15 0 -27 -5 -27
-12 0 -6 -3 -14 -7 -18 -4 -4 -4 -13 -2 -20 3 -7 1 -16 -4 -19 -6 -3 -8 -14
-5 -25 4 -14 -1 -18 -19 -17 -16 1 -22 7 -20 20 2 11 -1 15 -8 11 -6 -4 -9 -1
-8 7 2 7 -6 13 -17 13 -13 0 -20 7 -20 20 0 11 -5 19 -12 18 -6 -1 -14 5 -17
14 -6 14 -4 14 19 -1 14 -9 25 -12 25 -6 0 5 -5 10 -11 10 -5 0 -8 4 -5 8 3 5
-5 8 -17 7 -12 -1 -22 -7 -22 -12 0 -6 -3 -15 -7 -19 -5 -4 -8 -2 -8 6 0 10
-3 10 -15 0 -8 -7 -15 -8 -15 -3 0 13 49 37 76 38 11 0 28 6 37 13 9 8 18 9
21 3 4 -5 -3 -12 -14 -16 -11 -3 -20 -11 -20 -18 0 -8 3 -8 12 1 7 7 19 12 27
12 8 0 11 -3 7 -7 -4 -5 -13 -8 -18 -8 -6 0 -13 -7 -15 -15 -4 -12 -3 -12 5
-1 6 8 12 9 16 3 3 -6 0 -12 -6 -15 -7 -3 -3 -4 9 -4 12 1 19 5 16 11 -3 5 -1
6 5 2 12 -7 11 12 -2 32 -11 19 10 40 25 25 8 -8 7 -13 -2 -18 -8 -6 -10 -4
-4 5 5 9 4 11 -4 6 -9 -6 -9 -11 0 -22 14 -17 23 -19 13 -2 -4 7 -3 8 5 4 6
-4 11 -4 10 1 -3 20 2 34 11 28 6 -4 8 -10 5 -15 -3 -5 0 -12 6 -16 7 -4 9 -3
6 3 -11 18 20 38 37 24 10 -8 16 -9 21 -1 3 6 10 8 15 5 4 -3 11 3 14 12 6 14
11 12 35 -11 19 -18 31 -24 36 -16z m160 -134 c13 -13 26 -22 28 -20 2 2 4 -2
4 -10 0 -8 -6 -12 -14 -9 -7 3 -13 11 -13 19 0 8 -7 11 -17 8 -15 -5 -16 -4
-3 5 13 9 13 11 -2 11 -9 0 -20 5 -23 10 -12 20 16 10 40 -14z m3114 3 c-15
-9 -32 -2 -24 11 3 5 13 6 21 3 12 -4 13 -8 3 -14z m-60 -11 c-3 -25 1 -39 10
-34 5 3 12 -1 15 -9 4 -12 2 -13 -13 -6 -21 12 -34 38 -25 52 8 13 15 11 13
-3z m81 -8 c0 -5 -2 -10 -4 -10 -3 0 -8 5 -11 10 -3 6 -1 10 4 10 6 0 11 -4
11 -10z m-293 -36 c-3 -3 -12 -4 -19 -1 -8 3 -5 6 6 6 11 1 17 -2 13 -5z
m-2925 -29 c3 3 10 0 16 -8 8 -10 7 -13 -7 -14 -9 -1 -23 8 -31 20 -12 19 -11
20 2 10 8 -7 17 -11 20 -8z m2739 -16 c8 -12 10 -12 18 0 10 16 45 25 35 9 -3
-5 -8 -7 -12 -4 -3 3 -11 -2 -19 -12 -12 -16 -14 -16 -26 0 -8 10 -16 15 -19
12 -4 -3 -9 -1 -12 4 -10 16 25 7 35 -9z m-2571 -19 c4 0 11 -8 14 -17 6 -15
4 -15 -14 2 -11 10 -19 25 -19 34 1 13 2 13 6 -1 2 -10 8 -18 13 -18z m30 -5
c0 -5 -5 -3 -10 5 -5 8 -10 20 -10 25 0 6 5 3 10 -5 5 -8 10 -19 10 -25z
m2300 19 c0 -8 -19 -13 -24 -6 -3 5 1 9 9 9 8 0 15 -2 15 -3z m303 -9 c-3 -9
-8 -14 -10 -11 -3 3 -2 9 2 15 9 16 15 13 8 -4z m-206 -30 c0 -8 -4 -12 -9 -9
-5 3 -6 10 -3 15 9 13 12 11 12 -6z m-2377 -5 c0 -5 -4 -10 -10 -10 -5 0 -10
5 -10 10 0 6 5 10 10 10 6 0 10 -4 10 -10z m2354 -6 c3 -8 2 -12 -4 -9 -6 3
-10 10 -10 16 0 14 7 11 14 -7z m-2317 -1 c-4 -3 1 -12 11 -20 15 -13 15 -13
-6 -3 -19 9 -23 30 -5 30 4 0 3 -3 0 -7z m2143 -7 c0 -2 -9 -6 -20 -9 -11 -3
-18 -1 -14 4 5 9 34 13 34 5z m37 -19 c1 -11 1 -18 0 -16 -2 2 -8 11 -15 20
-9 12 -9 16 1 16 7 0 14 -9 14 -20z m-26 -14 c12 -16 12 -17 -2 -6 -9 7 -20 9
-24 5 -5 -4 -5 -1 -1 6 9 16 11 15 27 -5z m314 7 c-3 -5 -12 -10 -18 -10 -7 0
-6 4 3 10 19 12 23 12 15 0z m-2453 -18 c-13 -4 -23 -11 -22 -17 1 -5 -4 -11
-12 -13 -9 -2 -8 0 2 7 8 6 11 11 7 11 -5 0 -5 5 -2 10 3 6 16 10 28 9 22 -1
22 -1 -1 -7z m53 -2 c3 -6 -1 -7 -9 -4 -18 7 -21 14 -7 14 6 0 13 -4 16 -10z
m1992 -7 c0 -9 -4 -10 -14 -2 -10 9 -13 8 -13 -1 0 -8 -3 -11 -6 -7 -9 9 3 24
19 24 7 0 14 -6 14 -14z m31 -15 c10 -12 10 -18 1 -24 -7 -4 -9 -3 -5 4 3 6 2
13 -4 17 -5 3 -10 11 -10 17 0 6 1 9 3 7 1 -2 8 -11 15 -21z m-2054 -3 c-4 -8
-8 -15 -10 -15 -2 0 -4 7 -4 15 0 8 4 15 10 15 5 0 7 -7 4 -15z m1966 5 c0 -5
-5 -10 -11 -10 -5 0 -7 5 -4 10 3 6 8 10 11 10 2 0 4 -4 4 -10z m-1947 -15
c-3 -9 -8 -14 -10 -11 -3 3 -2 9 2 15 9 16 15 13 8 -4z m51 -4 c4 -5 -3 -7
-14 -4 -23 6 -26 13 -6 13 8 0 17 -4 20 -9z m36 5 c0 -3 -4 -8 -10 -11 -5 -3
-10 -1 -10 4 0 6 5 11 10 11 6 0 10 -2 10 -4z m1845 -14 c-3 -3 -11 0 -18 7
-9 10 -8 11 6 5 10 -3 15 -9 12 -12z m159 10 c2 -4 -4 -8 -14 -8 -10 0 -16 4
-14 8 3 4 9 8 14 8 5 0 11 -4 14 -8z m-2182 -27 c-8 -16 -9 -16 -15 -1 -4 10
-3 15 3 11 6 -3 10 -1 10 6 0 7 3 10 6 6 3 -3 2 -13 -4 -22z m2053 16 c3 -5 2
-12 -3 -15 -5 -3 -9 1 -9 9 0 17 3 19 12 6z m-1861 -17 c3 -8 2 -12 -4 -9 -6
3 -10 10 -10 16 0 14 7 11 14 -7z m1806 7 c0 -4 -13 -7 -29 -7 -17 0 -28 2
-26 5 5 9 55 10 55 2z m-1915 -29 c-3 -3 -11 0 -18 7 -9 10 -8 11 6 5 10 -3
15 -9 12 -12z m1829 2 c3 -8 2 -12 -4 -9 -6 3 -10 10 -10 16 0 14 7 11 14 -7z
m-29 -14 c10 -11 16 -20 13 -20 -3 0 -13 9 -23 20 -10 11 -16 20 -13 20 3 0
13 -9 23 -20z m-1735 0 c8 -5 11 -10 5 -10 -5 0 -17 5 -25 10 -8 5 -10 10 -5
10 6 0 17 -5 25 -10z m1700 6 c0 -2 -8 -10 -17 -17 -16 -13 -17 -12 -4 4 13
16 21 21 21 13z m-1495 -15 c3 -5 2 -12 -3 -15 -5 -3 -9 1 -9 9 0 17 3 19 12
6z m1685 -5 c0 -3 -4 -8 -10 -11 -5 -3 -10 -1 -10 4 0 6 5 11 10 11 6 0 10 -2
10 -4z m106 -24 c-18 -16 -18 -16 -6 6 6 13 14 21 18 18 3 -4 -2 -14 -12 -24z
m-1881 -2 c-3 -5 -12 -10 -18 -10 -7 0 -6 4 3 10 19 12 23 12 15 0z m1595 4
c0 -8 -19 -13 -24 -6 -3 5 1 9 9 9 8 0 15 -2 15 -3z m50 0 c0 -8 -19 -13 -24
-6 -3 5 1 9 9 9 8 0 15 -2 15 -3z m66 -26 c3 -4 -1 -5 -10 -4 -8 1 -18 5 -22
8 -3 4 1 5 10 4 8 -1 18 -5 22 -8z m126 -3 c0 -5 -5 -11 -11 -13 -6 -2 -11 4
-11 13 0 9 5 15 11 13 6 -2 11 -8 11 -13z m-102 -15 c0 -5 -5 -10 -11 -10 -5
0 -7 5 -4 10 3 6 8 10 11 10 2 0 4 -4 4 -10z m-1600 -30 c0 -5 -2 -10 -4 -10
-3 0 -8 5 -11 10 -3 6 -1 10 4 10 6 0 11 -4 11 -10z m105 -58 c-3 -3 -11 0
-18 7 -9 10 -8 11 6 5 10 -3 15 -9 12 -12z m1215 9 c0 -5 -7 -12 -16 -15 -14
-5 -15 -4 -4 9 14 17 20 19 20 6z m-54 -39 c-17 -16 -18 -16 -5 5 7 12 15 20
18 17 3 -2 -3 -12 -13 -22z"/>
<path d="M1066 1681 c-4 -5 -2 -12 3 -15 5 -4 12 -2 15 3 4 5 2 12 -3 15 -5 4
-12 2 -15 -3z"/>
<path d="M1216 1672 c-3 -5 1 -9 9 -9 8 0 12 4 9 9 -3 4 -7 8 -9 8 -2 0 -6 -4
-9 -8z"/>
<path d="M1004 1642 c12 -20 -39 -39 -60 -21 -8 6 -14 4 -18 -6 -3 -10 -2 -14
5 -9 6 3 25 -7 42 -22 18 -16 29 -25 25 -20 -5 5 -3 15 4 23 6 7 8 16 5 20 -4
3 -2 12 4 19 7 8 6 14 -2 20 -7 4 -9 3 -5 -4z m-12 -41 c8 11 9 11 6 1 -4 -16
-22 -18 -24 -2 -2 7 -1 6 3 -1 4 -8 8 -7 15 2z"/>
<path d="M425 2088 c-32 -29 -40 -69 -20 -108 16 -31 9 -39 -15 -17 -12 10
-13 10 -3 -2 6 -7 9 -21 6 -30 -4 -14 -3 -14 6 -1 9 12 11 11 12 -10 1 -19 2
-21 6 -6 3 11 8 14 12 8 3 -5 22 -13 43 -16 27 -4 37 -2 42 10 5 12 10 13 28
3 22 -12 22 -11 8 6 -14 17 -14 18 8 6 26 -14 28 -9 5 14 -13 14 -14 21 -5 36
20 32 14 69 -17 100 -36 36 -79 38 -116 7z"/>
<path d="M350 1939 c0 -5 5 -7 10 -4 6 3 10 8 10 11 0 2 -4 4 -10 4 -5 0 -10
-5 -10 -11z"/>
<path d="M1111 1807 c-8 -10 -7 -14 2 -14 8 0 14 6 14 14 0 7 -1 13 -2 13 -2
0 -8 -6 -14 -13z"/>
<path d="M670 1780 c0 -5 5 -10 11 -10 5 0 7 5 4 10 -3 6 -8 10 -11 10 -2 0
-4 -4 -4 -10z"/>
<path d="M970 1780 c0 -5 5 -10 11 -10 5 0 7 5 4 10 -3 6 -8 10 -11 10 -2 0
-4 -4 -4 -10z"/>
<path d="M1027 1779 c7 -7 15 -10 18 -7 3 3 -2 9 -12 12 -14 6 -15 5 -6 -5z"/>
<path d="M750 1759 c0 -5 5 -7 10 -4 6 3 10 8 10 11 0 2 -4 4 -10 4 -5 0 -10
-5 -10 -11z"/>
<path d="M875 1760 c-5 -8 42 -7 49 1 3 3 -6 5 -20 5 -14 0 -27 -3 -29 -6z"/>
<path d="M1079 1768 c-6 -20 -6 -39 0 -42 4 -3 7 6 7 20 0 20 -4 32 -7 22z"/>
<path d="M1114 1752 c2 -9 9 -18 17 -20 11 -3 11 -1 -1 7 -14 10 -7 16 15 11
6 -1 6 2 2 6 -14 15 -35 12 -33 -4z"/>
<path d="M535 1739 c-3 -4 2 -6 10 -5 21 3 28 13 10 13 -9 0 -18 -4 -20 -8z"/>
<path d="M820 1746 c0 -2 7 -9 15 -16 9 -7 15 -8 15 -2 0 5 -7 12 -15 16 -8 3
-15 4 -15 2z"/>
<path d="M1170 1739 c0 -5 5 -7 10 -4 6 3 10 8 10 11 0 2 -4 4 -10 4 -5 0 -10
-5 -10 -11z"/>
<path d="M1225 1740 c-3 -6 1 -7 9 -4 18 7 21 14 7 14 -6 0 -13 -4 -16 -10z"/>
<path d="M606 1725 c-11 -8 -15 -15 -9 -15 6 0 16 7 23 15 16 19 11 19 -14 0z"/>
<path d="M653 1727 c0 -7 13 -13 29 -14 15 0 28 3 28 7 0 5 -8 7 -17 5 -10 -1
-23 1 -29 6 -6 5 -11 4 -11 -4z"/>
<path d="M753 1719 c-2 -23 3 -25 10 -4 4 8 3 16 -1 19 -4 3 -9 -4 -9 -15z"/>
<path d="M725 1719 c-4 -6 -5 -12 -2 -15 2 -3 7 2 10 11 7 17 1 20 -8 4z"/>
<path d="M1257 1717 c3 -5 -5 -6 -18 -2 -23 7 -23 7 -4 -8 17 -13 21 -13 28
-1 5 8 12 12 18 9 5 -4 9 -2 9 4 0 5 -9 9 -19 8 -11 0 -17 -5 -14 -10z"/>
<path d="M653 1684 c1 -21 27 -23 27 -2 0 5 -4 7 -9 4 -5 -4 -11 0 -14 6 -3 7
-4 3 -4 -8z"/>
<path d="M710 1670 c0 -5 6 -10 13 -10 7 0 13 -9 14 -19 1 -14 -3 -18 -15 -14
-14 4 -14 3 -2 -5 19 -14 29 -7 27 19 -1 21 -37 49 -37 29z"/>
<path d="M4950 1671 c0 -5 -8 -8 -17 -6 -21 3 -45 -14 -37 -26 3 -5 -3 -6 -12
-2 -11 4 -13 8 -6 11 14 4 16 22 3 22 -5 0 -14 -13 -21 -29 -12 -31 -35 -47
-45 -31 -3 5 0 12 6 16 8 5 9 3 4 -7 -6 -11 -5 -12 5 -2 8 7 15 20 16 29 2 14
1 14 -15 0 -10 -9 -21 -13 -26 -9 -4 5 -5 2 0 -6 6 -10 2 -12 -14 -6 -12 4
-20 2 -19 -3 2 -6 0 -11 -4 -11 -11 -2 -58 -47 -58 -56 0 -4 6 -2 13 4 10 8
14 7 14 -4 0 -8 -4 -12 -9 -9 -13 8 -9 -2 5 -14 10 -8 13 -5 15 16 3 33 18 50
33 35 8 -8 7 -13 -2 -18 -8 -5 -10 -4 -5 3 4 7 3 12 -3 12 -5 0 -9 -9 -8 -19
1 -14 5 -17 13 -11 6 6 15 6 19 2 5 -4 5 -1 1 6 -4 7 -1 12 8 12 9 0 16 5 16
12 0 6 3 9 6 5 4 -3 14 1 22 10 11 11 17 12 20 4 3 -8 8 -8 15 -2 28 22 83 48
99 45 11 -1 15 3 11 12 -4 10 0 13 13 8 16 -5 16 -4 4 5 -11 8 -18 7 -27 -6
-12 -15 -17 -11 -14 10 0 4 -3 7 -9 7 -5 0 -10 -4 -10 -9z m4 -20 c-9 -9 -56
-12 -51 -3 3 4 17 8 31 8 14 0 23 -2 20 -5z m-64 -31 c0 -5 -4 -10 -10 -10 -5
0 -10 5 -10 10 0 6 5 10 10 10 6 0 10 -4 10 -10z m-80 -31 c0 -6 -4 -7 -10 -4
-5 3 -10 11 -10 16 0 6 5 7 10 4 6 -3 10 -11 10 -16z"/>
<path d="M1171 1642 c-7 -13 -19 -18 -36 -17 -14 2 -23 -1 -19 -6 6 -11 -9
-12 -20 -2 -10 11 -48 14 -41 4 3 -5 1 -12 -5 -16 -11 -7 -4 -25 10 -25 5 0
15 7 23 15 13 13 16 13 21 -1 3 -9 3 -21 -1 -27 -4 -7 1 -6 11 2 10 9 13 17 7
20 -6 4 -3 11 8 18 19 12 51 0 38 -14 -5 -4 -12 -1 -17 7 -6 8 -10 13 -11 10
0 -3 -2 -16 -5 -29 -4 -20 -2 -22 10 -11 18 14 40 4 32 -15 -2 -7 2 -16 11
-19 8 -4 13 -13 10 -20 -3 -8 0 -17 8 -20 10 -3 12 0 8 11 -5 12 -2 14 8 9 8
-4 3 2 -10 13 -13 12 -18 21 -12 21 6 0 11 5 11 11 0 5 -4 7 -10 4 -5 -3 -11
-1 -11 4 -3 26 -4 30 -11 37 -11 11 -10 24 3 24 5 0 7 -6 3 -12 -5 -9 -2 -9 9
1 9 7 17 12 18 10 6 -31 6 -38 -1 -34 -5 3 -11 1 -14 -4 -3 -5 1 -12 10 -15 9
-4 14 -13 10 -21 -3 -8 -2 -15 3 -15 16 0 21 13 10 27 -13 15 13 63 34 63 6 0
3 -7 -7 -15 -16 -12 -17 -18 -8 -27 10 -10 17 -8 33 9 l21 21 -21 11 c-12 7
-19 17 -15 24 3 7 -3 2 -13 -11 l-19 -23 -26 21 c-26 20 -27 20 -37 2z m-91
-37 c-7 -8 -17 -15 -23 -15 -6 0 -2 7 9 15 25 19 30 19 14 0z m196 0 c-8 -8
-18 -15 -22 -15 -3 0 -1 7 6 15 7 8 17 15 22 15 5 0 3 -7 -6 -15z"/>
<path d="M4798 1653 c7 -3 16 -2 19 1 4 3 -2 6 -13 5 -11 0 -14 -3 -6 -6z"/>
<path d="M1314 1633 c3 -16 16 -22 16 -8 0 3 0 10 0 15 0 6 -4 10 -9 10 -5 0
-8 -8 -7 -17z"/>
<path d="M4750 1635 c0 -8 -5 -14 -12 -12 -7 1 -12 -4 -13 -10 0 -15 -13 -18
-23 -7 -4 4 -1 4 6 -1 11 -6 12 -3 3 14 -14 25 -23 28 -14 4 4 -11 3 -14 -5
-9 -7 4 -15 1 -18 -8 -3 -9 -10 -14 -14 -11 -5 3 -11 1 -15 -5 -10 -17 -25
-11 -19 8 5 14 4 14 -4 3 -6 -8 -20 -16 -33 -18 -12 -2 -28 -8 -35 -14 -7 -6
-19 -8 -26 -4 -7 4 -4 -1 7 -9 11 -10 20 -29 20 -48 1 -29 4 -32 32 -33 32 -1
32 -1 12 18 -11 10 -17 22 -14 28 4 5 1 9 -6 9 -7 0 -10 2 -7 5 8 8 38 -6 38
-17 0 -5 -5 -6 -12 -2 -7 4 -8 3 -4 -5 4 -6 12 -9 17 -6 5 4 9 2 9 -4 0 -5 9
-9 19 -8 11 1 17 6 14 15 -3 7 -12 11 -19 8 -8 -3 -14 -1 -14 4 0 6 8 10 18
10 10 0 23 5 30 12 8 8 15 8 26 -2 9 -7 14 -16 11 -19 -2 -4 2 -8 10 -8 11 0
10 5 -2 24 -15 23 -15 26 13 51 16 15 31 26 34 25 3 -1 6 7 6 18 0 10 -4 19
-8 19 -4 0 -8 -7 -8 -15z m-57 -62 c-5 -11 -8 -12 -13 -2 -5 7 -6 19 -3 26 5
11 8 12 13 2 5 -7 6 -19 3 -26z m-38 7 c-3 -5 -1 -10 6 -10 9 0 9 -3 0 -14 -7
-8 -23 -12 -39 -10 -15 3 -38 5 -52 5 -23 0 -23 1 -7 10 30 18 51 18 71 0 18
-15 19 -15 13 1 -3 9 -3 19 0 22 10 10 15 7 8 -4z m-76 -83 c8 -10 7 -14 -2
-14 -8 0 -14 6 -14 14 0 7 1 13 2 13 2 0 8 -6 14 -13z"/>
<path d="M4610 1560 c0 -5 5 -10 11 -10 5 0 7 5 4 10 -3 6 -8 10 -11 10 -2 0
-4 -4 -4 -10z"/>
<path d="M613 1625 c0 -8 4 -12 9 -9 5 3 6 10 3 15 -9 13 -12 11 -12 -6z"/>
<path d="M679 1613 c-13 -16 -12 -17 4 -4 9 7 17 15 17 17 0 8 -8 3 -21 -13z"/>
<path d="M767 1609 c4 -13 8 -18 11 -10 2 7 -1 18 -6 23 -8 8 -9 4 -5 -13z"/>
<path d="M814 1594 c5 -12 2 -15 -9 -10 -11 4 -14 2 -9 -6 5 -8 1 -9 -12 -4
-14 5 -16 4 -8 -4 8 -8 18 -9 30 -2 11 5 26 7 34 5 10 -3 9 0 -3 7 -9 6 -15
15 -12 21 4 5 1 9 -5 9 -7 0 -9 -7 -6 -16z"/>
<path d="M665 1580 c-3 -6 1 -7 9 -4 18 7 21 14 7 14 -6 0 -13 -4 -16 -10z"/>
<path d="M864 1568 c3 -15 26 -23 26 -8 0 6 -4 9 -9 6 -5 -4 -12 -1 -14 4 -3
6 -4 5 -3 -2z"/>
<path d="M1065 1550 c10 -11 20 -20 22 -20 2 0 -2 9 -9 20 -7 11 -17 20 -22
20 -5 0 -1 -9 9 -20z"/>
<path d="M894 1539 c-3 -6 -2 -15 4 -21 6 -6 12 -6 17 3 6 8 4 10 -5 4 -10 -6
-12 -4 -7 8 7 19 2 23 -9 6z"/>
<path d="M855 1530 c-4 -6 -16 -8 -28 -5 -20 5 -20 5 -3 -6 14 -9 21 -8 34 5
9 9 13 16 10 16 -4 0 -10 -5 -13 -10z"/>
<path d="M4665 1529 c-4 -6 -4 -13 -1 -16 3 -4 6 0 6 8 0 11 2 11 10 -1 8 -13
10 -12 10 3 0 19 -15 23 -25 6z"/>
<path d="M1275 1509 c-11 -17 1 -21 15 -4 8 9 8 15 2 15 -6 0 -14 -5 -17 -11z"/>
<path d="M1051 1493 c-1 -17 16 -25 25 -12 4 7 3 9 -4 5 -5 -3 -13 0 -15 6 -4
9 -6 10 -6 1z"/>
<path d="M1095 1480 c3 -5 8 -10 11 -10 2 0 4 5 4 10 0 6 -5 10 -11 10 -5 0
-7 -4 -4 -10z"/>
<path d="M1084 1463 c5 -9 -1 -13 -19 -13 -102 0 -162 -146 -97 -237 l21 -30
-22 4 c-15 3 -26 -3 -35 -17 -8 -12 -9 -19 -3 -16 5 4 12 2 16 -4 3 -5 0 -10
-7 -10 -8 0 -6 -5 5 -11 10 -6 14 -15 10 -22 -5 -9 -2 -8 9 0 8 7 18 9 22 5 4
-4 13 -7 19 -7 7 -1 11 -7 9 -15 -3 -12 0 -12 15 1 21 18 69 23 78 9 3 -5 -7
-8 -24 -5 -24 3 -29 0 -24 -13 4 -10 8 -12 11 -4 2 7 8 12 13 12 6 0 7 -5 3
-11 -4 -8 0 -8 15 0 24 13 26 22 9 40 -10 10 -8 10 10 0 19 -12 24 -12 32 1 5
8 12 11 17 7 4 -5 1 -12 -7 -17 -8 -5 -11 -12 -6 -17 4 -4 12 0 17 10 6 9 15
15 20 12 5 -4 6 -11 3 -17 -4 -6 -2 -8 4 -5 5 4 8 16 5 27 -3 11 -10 17 -16
13 -6 -4 -7 -1 -3 6 5 7 11 10 14 7 3 -3 10 -1 17 4 8 7 12 5 12 -5 0 -8 -5
-15 -11 -15 -6 0 -5 -4 3 -9 11 -7 9 -15 -12 -42 -39 -52 -40 -118 -2 -172 16
-24 20 -39 13 -43 -7 -4 -8 -3 -4 4 4 7 4 12 -1 13 -4 0 -16 2 -25 4 -10 2
-18 -1 -18 -7 0 -6 7 -7 16 -4 8 3 12 2 9 -3 -3 -5 -1 -12 5 -16 13 -8 13 -25
0 -25 -6 0 -9 5 -8 12 2 7 -7 13 -19 14 -16 1 -20 -3 -17 -19 2 -11 6 -22 10
-26 3 -3 4 3 2 13 -1 10 3 21 10 23 7 3 12 1 11 -4 -4 -20 2 -33 14 -31 6 2
11 -3 9 -9 -1 -7 3 -13 9 -13 6 0 8 9 4 23 -5 16 -4 18 3 8 6 -8 17 -11 25 -8
10 4 14 1 11 -6 -2 -7 8 -17 22 -24 21 -10 25 -10 20 2 -3 8 0 17 6 21 7 5 8
2 3 -6 -6 -10 -4 -12 8 -7 14 5 40 -13 34 -24 -1 -3 6 4 17 16 10 11 24 18 30
17 30 -10 46 -10 41 -1 -6 9 3 12 38 12 13 0 15 3 7 12 -8 10 -6 16 7 24 10 6
13 11 8 11 -6 0 -16 -5 -23 -12 -9 -9 -12 -7 -12 11 0 12 -4 19 -10 16 -6 -4
-8 -10 -5 -15 6 -10 -21 -7 -32 4 -4 4 -1 6 7 4 9 -2 14 4 14 15 -1 9 2 17 6
17 14 0 33 79 27 115 -7 45 -40 91 -79 111 -32 16 -114 16 -153 -1 -17 -8 -18
-7 -7 7 9 11 10 18 2 23 -5 3 -10 11 -10 17 0 6 9 3 19 -6 17 -16 19 -16 17
-2 -1 9 -5 15 -9 14 -3 -2 -13 6 -21 17 -14 20 -14 20 -13 0 1 -12 -5 -20 -18
-22 l-20 -3 20 9 c11 6 14 10 6 10 -11 1 -10 6 3 25 30 46 35 100 15 145 -17
38 -54 84 -71 89 -5 1 -16 2 -25 2 -15 0 -16 2 -3 10 9 6 10 10 3 10 -6 0 -15
-5 -18 -10 -5 -8 -12 -7 -23 2 -12 10 -14 10 -8 1z m-115 -304 c-15 -9 -32 -2
-24 11 3 5 13 6 21 3 12 -4 13 -8 3 -14z m31 -42 c0 -6 -7 -2 -15 9 -9 12 -14
14 -15 6 0 -7 -5 -10 -11 -6 -8 4 -7 9 2 15 14 9 39 -7 39 -24z m30 -8 c0 -6
-4 -7 -10 -4 -5 3 -10 11 -10 16 0 6 5 7 10 4 6 -3 10 -11 10 -16z m446 -281
c5 -7 3 -8 -5 -4 -7 5 -20 1 -31 -9 -14 -13 -20 -14 -26 -3 -4 7 -4 10 1 6 4
-4 14 -1 22 7 17 18 29 19 39 3z m-109 -40 c-3 -8 -6 -5 -6 6 -1 11 2 17 5 13
3 -3 4 -12 1 -19z"/>
<path d="M1239 1452 c9 -7 10 -11 2 -15 -7 -4 -8 -5 0 -3 15 2 13 20 -3 24
-10 3 -10 2 1 -6z"/>
<path d="M1344 1438 c3 -10 1 -18 -3 -18 -5 0 -12 -8 -15 -17 -6 -16 -5 -16
12 0 18 17 20 16 36 -7 9 -14 16 -31 16 -38 0 -9 3 -9 10 2 5 8 10 10 10 4 0
-22 -15 -24 -31 -3 -12 16 -18 19 -24 9 -5 -9 -4 -11 3 -6 7 4 12 3 12 -3 0
-5 -6 -11 -12 -14 -7 -2 -5 -3 5 -1 11 1 17 -2 14 -10 -3 -8 5 -11 24 -10 16
1 31 -2 34 -6 3 -5 -7 -7 -22 -4 -28 4 -28 4 -5 -9 21 -12 22 -15 8 -26 -9 -8
-16 -18 -16 -23 0 -5 12 4 26 21 21 26 24 34 14 46 -7 8 -17 12 -22 9 -6 -4
-8 1 -4 12 6 20 -6 47 -20 44 -5 -1 -10 4 -12 12 -3 11 -2 11 6 0 5 -8 12 -13
16 -13 3 1 7 1 9 0 29 -9 36 -6 27 12 -6 11 -19 18 -33 16 -12 -1 -21 3 -20
10 1 6 -5 10 -15 8 -9 -1 -21 3 -25 9 -6 7 -7 4 -3 -6z"/>
<path d="M4278 1437 c8 -9 4 -17 -17 -32 -33 -22 -52 -71 -40 -104 5 -12 7
-38 4 -57 -3 -22 0 -32 6 -28 6 3 17 -4 26 -16 14 -19 17 -20 32 -6 13 12 20
13 29 4 9 -9 18 -9 36 0 22 10 24 9 20 -6 -2 -9 1 -7 7 6 7 12 18 22 26 22 7
0 12 10 12 23 -1 16 -2 18 -6 5 -5 -18 -23 -25 -23 -9 0 5 7 25 15 44 10 25
12 43 6 60 -6 14 -7 28 -4 31 4 3 1 6 -5 6 -7 0 -12 6 -12 13 -1 18 -67 46
-79 34 -7 -7 -12 -5 -17 6 -3 9 -11 17 -16 17 -7 0 -7 -4 0 -13z"/>
<path d="M4196 1421 c-21 -23 -20 -28 3 -34 14 -3 18 -1 14 9 -3 9 2 12 16 9
24 -4 37 10 19 22 -22 13 -36 12 -52 -6z m50 -3 c3 -4 -2 -5 -13 -4 -10 2 -25
-2 -33 -8 -13 -9 -13 -9 -2 6 12 16 35 18 48 6z"/>
<path d="M1290 1410 c-9 -6 -10 -10 -3 -10 6 0 15 5 18 10 8 12 4 12 -15 0z"/>
<path d="M435 1398 c-53 -29 -73 -108 -40 -155 10 -14 12 -24 5 -28 -5 -3 -10
-15 -10 -25 0 -13 6 -18 20 -15 11 2 24 -3 30 -13 5 -10 10 -12 10 -4 0 6 5
12 11 12 5 0 7 -4 4 -10 -3 -5 -1 -10 5 -10 6 0 9 -4 6 -8 -3 -5 2 -9 10 -9
10 0 11 4 4 11 -5 5 -10 15 -10 21 0 5 5 3 11 -5 8 -12 12 -12 16 -2 4 10 8
10 19 1 12 -10 13 -8 9 7 -3 10 0 7 7 -7 7 -14 19 -33 25 -41 10 -12 10 -18
-2 -34 -9 -11 -14 -13 -13 -5 2 7 -4 16 -12 18 -12 4 -12 3 -2 -5 8 -5 13 -13
13 -18 0 -5 7 -9 16 -9 9 0 18 -7 20 -15 4 -13 3 -13 -6 0 -8 11 -11 11 -11 2
0 -7 7 -15 15 -18 8 -4 12 -11 8 -17 -3 -6 -1 -7 6 -3 6 4 9 13 5 19 -3 7 0 5
8 -4 14 -17 52 -34 44 -20 -3 5 1 12 10 15 9 4 13 2 8 -5 -4 -7 -1 -10 7 -7 8
3 13 11 11 18 -2 11 0 11 11 1 12 -9 16 -9 20 1 4 10 6 9 6 -2 1 -10 6 -7 17
8 8 12 20 20 25 17 5 -4 9 -1 9 4 0 6 6 11 14 11 9 0 13 10 12 29 0 16 -4 27
-8 25 -11 -7 -10 11 3 40 18 39 2 96 -38 133 -29 28 -42 33 -84 33 -28 0 -59
-5 -70 -10 -15 -9 -19 -7 -19 6 0 9 -15 31 -34 50 -36 36 -81 44 -121 22z
m361 -301 c3 -23 -3 -21 -17 4 -8 17 -8 20 2 17 7 -2 13 -12 15 -21z m-142
-69 c-3 -4 -9 -8 -15 -8 -5 0 -9 4 -9 8 0 5 7 9 15 9 8 0 12 -4 9 -9z"/>
<path d="M4060 1395 c7 -8 17 -12 22 -9 6 4 5 10 -3 15 -22 14 -33 10 -19 -6z"/>
<path d="M1336 1385 c-11 -8 -15 -15 -9 -15 6 0 16 7 23 15 16 19 11 19 -14 0z"/>
<path d="M4162 1364 c-7 -8 -8 -14 -3 -14 10 0 25 19 20 25 -2 1 -10 -3 -17
-11z"/>
<path d="M1300 1366 c0 -2 8 -10 18 -17 15 -13 16 -12 3 4 -13 16 -21 21 -21
13z"/>
<path d="M4556 1349 c-53 -42 -66 -94 -36 -151 11 -22 18 -43 15 -48 -3 -5 0
-20 7 -34 8 -20 16 -25 31 -20 13 4 17 2 13 -5 -4 -6 -2 -11 4 -11 6 0 9 -4 6
-8 -3 -5 1 -9 9 -9 10 0 11 5 4 18 -7 15 -6 17 6 13 15 -6 18 -13 18 -46 0
-10 4 -15 8 -12 5 3 7 9 4 14 -3 4 1 11 7 13 10 4 10 6 1 6 -18 1 -16 21 2 21
8 0 15 -5 15 -11 0 -5 4 -8 10 -4 5 3 6 13 3 23 -5 14 -2 13 11 -3 10 -11 15
-14 11 -7 -4 8 1 12 14 12 12 0 21 7 21 15 0 13 4 14 23 5 20 -10 20 -10 5 3
-10 8 -15 17 -11 21 4 4 -1 4 -11 0 -15 -6 -17 -4 -11 6 6 10 4 12 -11 6 -17
-6 -16 -5 3 16 44 48 34 132 -22 176 -37 30 -112 30 -149 1z m174 -229 c0 -5
-5 -10 -11 -10 -5 0 -7 5 -4 10 3 6 8 10 11 10 2 0 4 -4 4 -10z"/>
<path d="M4090 1339 c0 -5 5 -7 10 -4 6 3 10 8 10 11 0 2 -4 4 -10 4 -5 0 -10
-5 -10 -11z"/>
<path d="M3780 1315 c-7 -8 -9 -15 -4 -15 5 0 -2 -10 -16 -21 -16 -14 -19 -19
-7 -15 10 3 17 0 17 -7 0 -6 7 -2 15 10 10 14 22 20 33 16 14 -5 14 -3 -2 9
-10 8 -16 20 -12 26 11 17 -9 15 -24 -3z m14 -14 c3 -5 -2 -15 -12 -22 -15
-12 -16 -12 -5 2 7 9 10 19 6 22 -3 4 -4 7 0 7 3 0 8 -4 11 -9z"/>
<path d="M3970 1319 c0 -5 5 -7 10 -4 6 3 10 8 10 11 0 2 -4 4 -10 4 -5 0 -10
-5 -10 -11z"/>
<path d="M1465 1310 c4 -6 11 -8 16 -5 14 9 11 15 -7 15 -8 0 -12 -5 -9 -10z"/>
<path d="M3914 1306 c1 -8 5 -18 8 -22 4 -3 5 1 4 10 -1 8 -5 18 -8 22 -4 3
-5 -1 -4 -10z"/>
<path d="M1390 1289 c0 -5 5 -7 10 -4 6 3 10 8 10 11 0 2 -4 4 -10 4 -5 0 -10
-5 -10 -11z"/>
<path d="M3795 1259 c-11 -16 -1 -19 13 -3 7 8 8 14 3 14 -5 0 -13 -5 -16 -11z"/>
<path d="M380 1220 c-9 -6 -10 -10 -3 -10 6 0 15 5 18 10 8 12 4 12 -15 0z"/>
<path d="M4295 1189 c-10 -15 3 -25 16 -12 7 7 7 13 1 17 -6 3 -14 1 -17 -5z"/>
<path d="M1620 1180 c-9 -6 -10 -10 -3 -10 6 0 15 5 18 10 8 12 4 12 -15 0z"/>
<path d="M4050 1163 c-16 -6 -39 -28 -52 -47 -18 -28 -27 -34 -43 -28 -42 15
-139 8 -167 -13 -42 -31 -62 -85 -55 -147 4 -28 10 -54 14 -57 5 -3 17 -17 28
-31 12 -15 14 -20 4 -12 -20 15 -33 4 -17 -15 8 -10 8 -17 -1 -26 -10 -9 -11
-8 -6 8 5 15 4 16 -3 6 -7 -9 -12 -10 -16 -2 -4 6 -3 11 3 11 5 0 8 8 7 18 -2
9 -7 16 -12 14 -5 -2 -8 -10 -6 -17 2 -10 -3 -13 -15 -9 -13 5 -11 1 5 -10 12
-10 19 -22 16 -28 -4 -7 -2 -8 4 -4 7 4 12 1 12 -6 0 -11 2 -11 9 0 6 10 10
10 21 -2 7 -9 17 -13 24 -9 17 11 37 12 30 2 -3 -5 -10 -7 -15 -4 -5 4 -9 1
-9 -5 0 -14 41 -3 52 14 5 8 8 7 8 -2 0 -7 5 -10 10 -7 6 3 10 1 10 -5 0 -7
-7 -10 -15 -7 -24 10 -26 -9 -2 -29 16 -14 18 -14 9 -2 -11 14 -10 17 8 23 11
3 18 10 15 15 -3 5 0 12 6 16 7 4 9 3 6 -3 -9 -15 17 -23 34 -11 11 8 9 8 -6
4 -19 -6 -19 -5 -3 7 10 8 15 17 11 20 -3 4 -3 7 1 7 3 0 11 -10 16 -22 7 -18
9 -19 9 -5 1 9 6 17 12 17 5 0 7 -6 3 -12 -5 -9 -2 -9 9 1 9 7 17 10 17 7 0
-4 9 -1 20 7 11 8 34 13 50 11 17 -2 30 0 30 4 0 4 -18 7 -40 7 -22 0 -40 -4
-40 -9 0 -6 -7 -1 -15 10 -16 21 -19 50 -6 58 4 3 6 -6 3 -21 -3 -18 -1 -24 7
-19 6 4 9 11 7 15 -3 4 1 8 9 8 10 0 12 -4 5 -12 -18 -22 2 -24 22 -2 11 12
17 17 14 10 -8 -15 10 -27 19 -13 3 5 12 10 18 10 8 0 8 -3 -1 -9 -10 -6 -9
-11 4 -22 10 -8 15 -9 11 -3 -8 14 13 33 42 39 12 2 25 -3 31 -13 5 -9 10 -12
10 -5 0 7 7 10 18 7 14 -5 14 -4 2 4 -8 6 -18 8 -24 5 -5 -3 -6 -1 -3 5 4 5
15 8 26 5 19 -5 36 21 25 38 -3 5 0 9 7 9 18 0 5 10 -20 15 -12 2 -19 0 -16
-6 4 -5 10 -7 14 -5 4 3 7 -3 6 -12 0 -9 -5 -18 -10 -19 -6 -1 -9 5 -7 14 2 8
-1 12 -6 9 -15 -9 -9 15 12 47 39 58 28 148 -23 198 -38 37 -114 47 -171 22z
m-31 -367 c11 -14 6 -15 -27 -7 -4 1 8 21 12 21 2 0 9 -6 15 -14z m-225 -22
c3 -8 2 -12 -4 -9 -6 3 -10 10 -10 16 0 14 7 11 14 -7z"/>
<path d="M895 1160 c3 -5 8 -10 11 -10 2 0 4 5 4 10 0 6 -5 10 -11 10 -5 0 -7
-4 -4 -10z"/>
<path d="M4509 1169 c-5 -24 -3 -57 3 -53 4 2 12 -4 18 -13 10 -16 11 -16 4 2
-3 11 -7 28 -8 37 -2 16 -15 37 -17 27z"/>
<path d="M4475 1151 c-3 -5 -2 -12 3 -15 5 -3 9 1 9 9 0 17 -3 19 -12 6z"/>
<path d="M513 1075 c0 -8 4 -12 9 -9 5 3 6 10 3 15 -9 13 -12 11 -12 -6z"/>
<path d="M828 1063 c7 -3 16 -2 19 1 4 3 -2 6 -13 5 -11 0 -14 -3 -6 -6z"/>
<path d="M1035 1060 c3 -5 8 -10 11 -10 2 0 4 5 4 10 0 6 -5 10 -11 10 -5 0
-7 -4 -4 -10z"/>
<path d="M1095 1060 c-3 -5 -1 -10 4 -10 6 0 11 5 11 10 0 6 -2 10 -4 10 -3 0
-8 -4 -11 -10z"/>
<path d="M537 1045 c3 -8 9 -12 14 -9 12 7 11 11 -5 17 -10 4 -13 1 -9 -8z"/>
<path d="M786 1051 c-3 -5 2 -15 12 -22 15 -13 16 -12 4 3 -10 13 -10 17 0 21
9 4 9 6 1 6 -6 1 -14 -3 -17 -8z"/>
<path d="M757 1035 c-4 -8 -3 -16 1 -19 4 -3 9 4 9 15 2 23 -3 25 -10 4z"/>
<path d="M3106 1012 c-3 -5 1 -9 9 -9 8 0 12 4 9 9 -3 4 -7 8 -9 8 -2 0 -6 -4
-9 -8z"/>
<path d="M708 1004 c6 -3 9 -11 5 -17 -5 -8 -2 -8 9 0 8 7 18 11 21 8 4 -3 5
-2 2 2 -3 4 -16 8 -28 9 -12 2 -16 0 -9 -2z"/>
<path d="M675 991 c-3 -5 -2 -12 3 -15 5 -3 9 1 9 9 0 17 -3 19 -12 6z"/>
<path d="M2885 910 c-3 -5 1 -10 10 -10 9 0 13 5 10 10 -3 6 -8 10 -10 10 -2
0 -7 -4 -10 -10z"/>
<path d="M4294 902 c3 -5 0 -12 -6 -15 -7 -2 -10 -7 -7 -11 3 -4 12 0 18 8 9
11 9 16 0 22 -7 4 -9 3 -5 -4z"/>
<path d="M1470 896 c0 -2 8 -10 18 -17 15 -13 16 -12 3 4 -13 16 -21 21 -21
13z"/>
<path d="M4164 832 c-17 -11 -13 -38 6 -38 9 0 17 6 17 12 0 7 -7 9 -16 6 -14
-5 -14 -3 -2 11 14 18 13 21 -5 9z"/>
<path d="M4070 820 c0 -5 5 -10 11 -10 5 0 7 5 4 10 -3 6 -8 10 -11 10 -2 0
-4 -4 -4 -10z"/>
<path d="M1236 775 c-9 -26 -7 -32 5 -12 6 10 9 21 6 23 -2 3 -7 -2 -11 -11z"/>
<path d="M1325 780 c-3 -5 -1 -10 4 -10 6 0 11 5 11 10 0 6 -2 10 -4 10 -3 0
-8 -4 -11 -10z"/>
<path d="M1270 776 c0 -2 8 -10 18 -17 15 -13 16 -12 3 4 -13 16 -21 21 -21
13z"/>
<path d="M4090 776 c0 -2 8 -10 18 -17 15 -13 16 -12 3 4 -13 16 -21 21 -21
13z"/>
<path d="M4156 767 c3 -10 9 -15 12 -12 3 3 0 11 -7 18 -10 9 -11 8 -5 -6z"/>
<path d="M1313 745 c0 -8 4 -12 9 -9 5 3 6 10 3 15 -9 13 -12 11 -12 -6z"/>
<path d="M1346 738 c3 -5 10 -6 15 -3 13 9 11 12 -6 12 -8 0 -12 -4 -9 -9z"/>
</g>
</svg>
